<svg xmlns="http://www.w3.org/2000/svg" viewBox="0 0 262.12 256.19"><defs><style>.cls-1{fill:#8b0900;}</style></defs><g id="Capa_2" data-name="Capa 2"><g id="Capa_1-2" data-name="Capa 1"><path class="cls-1" d="M131.06,145a66,66,0,0,1-46.4-19.17C64.39,106,60.77,78,74.2,45A176.66,176.66,0,0,1,99.89,2a5.66,5.66,0,1,1,8.63,7.32c-.14.17-14.86,17.7-23.92,40.12-11.62,28.74-8.94,51.73,8,68.36a54.51,54.51,0,0,0,76.94,0C210.55,77.5,154.17,10,153.6,9.32A5.66,5.66,0,1,1,162.23,2a176.45,176.45,0,0,1,25.68,43c13.44,33,9.82,61-10.45,80.92A66,66,0,0,1,131.06,145Z"/><path class="cls-1" d="M131.06,110.64c-17,0-30.73-15.68-30.73-35s13.78-35,30.73-35,30.73,15.69,30.73,35S148,110.64,131.06,110.64Zm0-58.62c-10.7,0-19.41,10.61-19.41,23.65s8.71,23.66,19.41,23.66,19.41-10.61,19.41-23.66S141.76,52,131.06,52Z"/><path class="cls-1" d="M118.91,256.19a5.65,5.65,0,0,1-5.65-5.51,190.47,190.47,0,0,0-4-30.07c-37.92-6.08-66.67-19.67-85.5-40.44A93,93,0,0,1,.11,127a18.94,18.94,0,0,1,6.15-16.12,19,19,0,0,1,16.67-4.66c40.45,8,70.88,35.65,88,79.87a201.88,201.88,0,0,1,7.65,24.37,110.9,110.9,0,0,0,25,0,203.81,203.81,0,0,1,7.66-24.37c17.11-44.22,47.54-71.84,88-79.87A19.2,19.2,0,0,1,262,127a93,93,0,0,1-23.64,53.13c-18.83,20.77-47.58,34.36-85.5,40.44a190.47,190.47,0,0,0-4,30.07,5.66,5.66,0,0,1-5.65,5.51h-.15a5.65,5.65,0,0,1-5.51-5.8A188.31,188.31,0,0,1,141,222.12a122.18,122.18,0,0,1-19.88,0,188.31,188.31,0,0,1,3.45,28.27,5.65,5.65,0,0,1-5.51,5.8Zm-99.73-139a7.9,7.9,0,0,0-7.82,8.65c2.65,25.38,18.68,69,95,82.78a184.08,184.08,0,0,0-6.13-18.71c-15.88-40.83-42.64-65.25-79.53-72.57A8,8,0,0,0,19.18,117.21Zm223.76,0a8,8,0,0,0-1.54.15c-36.89,7.32-63.65,31.74-79.53,72.57a184.08,184.08,0,0,0-6.13,18.71c76.34-13.83,92.37-57.4,95-82.78a7.9,7.9,0,0,0-7.82-8.65Z"/></g></g></svg>