<svg xmlns="http://www.w3.org/2000/svg" viewBox="0 0 300 300"><defs><style>.cls-1{fill:#8b0900;}.cls-2{fill:#fbfbfb;}</style></defs><g id="Capa_2" data-name="Capa 2"><g id="Capa_2-2" data-name="Capa 2"><rect class="cls-1" width="300" height="300"/></g><g id="Capa_1-2" data-name="Capa 1"><path class="cls-2" d="M152.91,112.47A44.51,44.51,0,0,1,121.6,99.53c-13.68-13.44-16.12-32.32-7.06-54.61a118.86,118.86,0,0,1,17.34-29,3.82,3.82,0,1,1,5.82,4.94A113.32,113.32,0,0,0,121.56,48c-7.84,19.39-6,34.91,5.39,46.13a36.78,36.78,0,0,0,51.92,0c27.69-27.19-10.36-72.75-10.75-73.2A3.82,3.82,0,1,1,174,15.94a119,119,0,0,1,17.33,29c9.06,22.29,6.62,41.17-7.05,54.61A44.58,44.58,0,0,1,152.91,112.47Z"/><path class="cls-2" d="M152.91,89.25c-11.43,0-20.74-10.58-20.74-23.59s9.31-23.6,20.74-23.6,20.74,10.58,20.74,23.6S164.35,89.25,152.91,89.25Zm0-39.56c-7.22,0-13.1,7.16-13.1,16s5.88,16,13.1,16,13.1-7.16,13.1-16S160.13,49.69,152.91,49.69Z"/><path class="cls-2" d="M144.71,187.47a3.81,3.81,0,0,1-3.81-3.72,128.21,128.21,0,0,0-2.71-20.29c-25.59-4.1-45-13.27-57.69-27.29a62.74,62.74,0,0,1-16-35.85,13,13,0,0,1,15.4-14c27.3,5.42,47.83,24,59.38,53.9a136.49,136.49,0,0,1,5.17,16.44,75.35,75.35,0,0,0,16.85,0,138.18,138.18,0,0,1,5.16-16.44c11.55-29.85,32.08-48.48,59.38-53.9a12.95,12.95,0,0,1,15.4,14,62.72,62.72,0,0,1-15.95,35.85c-12.71,14-32.11,23.19-57.7,27.29a129.8,129.8,0,0,0-2.71,20.29,3.81,3.81,0,0,1-3.81,3.72H161a3.81,3.81,0,0,1-3.72-3.91,127,127,0,0,1,2.33-19.08,83.39,83.39,0,0,1-13.41,0,127.72,127.72,0,0,1,2.32,19.08,3.81,3.81,0,0,1-3.72,3.91ZM77.41,93.68a5.28,5.28,0,0,0-3.57,1.4,5.21,5.21,0,0,0-1.7,4.44c1.78,17.13,12.6,46.53,64.12,55.86a125.11,125.11,0,0,0-4.14-12.62c-10.72-27.56-28.77-44-53.67-49A5.17,5.17,0,0,0,77.41,93.68Zm151,0a5.33,5.33,0,0,0-1,.11c-24.89,4.94-43,21.41-53.67,49a125,125,0,0,0-4.13,12.62c51.51-9.33,62.33-38.73,64.12-55.86a5.34,5.34,0,0,0-5.28-5.84Z"/><path class="cls-2" d="M94.36,257.57a32.06,32.06,0,0,1-11.73-2.09,27.33,27.33,0,0,1-15.42-14.83,29.89,29.89,0,0,1,0-22.51,27.25,27.25,0,0,1,6.18-8.94,28,28,0,0,1,9.32-5.9,34.68,34.68,0,0,1,23.77,0,24.23,24.23,0,0,1,6.31,3.62,3.57,3.57,0,0,1,.34,5.32h0a3.53,3.53,0,0,1-4.62.33,20.39,20.39,0,0,0-5.06-2.85,23.58,23.58,0,0,0-8.62-1.54,24.18,24.18,0,0,0-8.77,1.57,21,21,0,0,0-7,4.41,19.62,19.62,0,0,0-4.56,6.73,21.83,21.83,0,0,0-1.61,8.46,21.57,21.57,0,0,0,1.61,8.38,20,20,0,0,0,4.56,6.77A20.64,20.64,0,0,0,86,249a23.68,23.68,0,0,0,8.73,1.57,26,26,0,0,0,8.46-1.38,20.68,20.68,0,0,0,7.52-4.6l2.36,3.15a3.49,3.49,0,0,1-.89,5,29,29,0,0,1-6.55,3A36.13,36.13,0,0,1,94.36,257.57Zm12.24-5.77V235.11a3.78,3.78,0,0,1,3.78-3.77h0a3.77,3.77,0,0,1,3.78,3.77v13.65a3.56,3.56,0,0,1-4,3.52Z"/><path class="cls-2" d="M124.26,251.74l21-46.34a6.06,6.06,0,0,1,5.51-3.55h0a6,6,0,0,1,5.5,3.54l21.06,46.34a3.69,3.69,0,0,1-3.35,5.21h-.15a3.7,3.7,0,0,1-3.37-2.2l-21.31-48.49h3.15L131,254.74a3.7,3.7,0,0,1-3.37,2.2h0A3.68,3.68,0,0,1,124.26,251.74Zm8.27-8.58,2.12-6.29h31l2.28,6.29Z"/><path class="cls-2" d="M187.85,251.94V206.85a5,5,0,0,1,5-5h18.22a33.44,33.44,0,0,1,15.54,3.46A25.59,25.59,0,0,1,237.08,215a29.59,29.59,0,0,1,0,28.8,25.53,25.53,0,0,1-10.47,9.68,33.44,33.44,0,0,1-15.54,3.47H192.85A5,5,0,0,1,187.85,251.94Zm7.87-6.85a5,5,0,0,0,5,5h9.88a25.38,25.38,0,0,0,11.84-2.6,18.85,18.85,0,0,0,7.75-7.28,22.67,22.67,0,0,0,0-21.68,19,19,0,0,0-7.75-7.24,25.38,25.38,0,0,0-11.84-2.6h-9.88a5,5,0,0,0-5,5Z"/><path class="cls-2" d="M111,278.92h-.79V268h7.28v.71H111Zm-.09-5.52h5.89v.72h-5.89Z"/><path class="cls-2" d="M120.11,268.83a.58.58,0,0,1-.45-.19.57.57,0,0,1-.19-.43.65.65,0,0,1,.64-.64.62.62,0,0,1,.46.18.6.6,0,0,1,.18.44.61.61,0,0,1-.18.45A.59.59,0,0,1,120.11,268.83Zm-.39,10.09v-8.11h.78v8.11Z"/><path class="cls-2" d="M125.83,279a5.85,5.85,0,0,1-1.89-.3,3.63,3.63,0,0,1-1.36-.74l.36-.63a4,4,0,0,0,1.25.69,4.55,4.55,0,0,0,1.67.29,3.1,3.1,0,0,0,1.84-.42,1.32,1.32,0,0,0,.56-1.1A1.08,1.08,0,0,0,128,276a1.86,1.86,0,0,0-.77-.44,9,9,0,0,0-1-.26c-.39-.06-.77-.14-1.16-.22a4.81,4.81,0,0,1-1-.36,2,2,0,0,1-.72-2.86,2.36,2.36,0,0,1,1-.8,4.05,4.05,0,0,1,1.71-.31,5.77,5.77,0,0,1,1.53.22,3.93,3.93,0,0,1,1.25.58l-.35.62a3.29,3.29,0,0,0-1.16-.56,5.07,5.07,0,0,0-1.29-.17,2.79,2.79,0,0,0-1.73.43,1.34,1.34,0,0,0-.55,1.09,1.15,1.15,0,0,0,.28.82,2,2,0,0,0,.77.47,9.67,9.67,0,0,0,1.06.26c.39.07.77.14,1.15.23a4.26,4.26,0,0,1,1.06.35,1.89,1.89,0,0,1,.77.62,1.78,1.78,0,0,1,.29,1.06,1.88,1.88,0,0,1-.37,1.17,2.37,2.37,0,0,1-1.08.78A5,5,0,0,1,125.83,279Z"/><path class="cls-2" d="M131.6,268.83a.61.61,0,0,1-.45-.19.6.6,0,0,1-.18-.43.63.63,0,0,1,.63-.64.62.62,0,0,1,.46.18.6.6,0,0,1,.18.44.61.61,0,0,1-.18.45A.59.59,0,0,1,131.6,268.83Zm-.38,10.09v-8.11H132v8.11Z"/><path class="cls-2" d="M138.45,279a4.1,4.1,0,0,1-2.08-.53,3.88,3.88,0,0,1-1.44-1.46,4.22,4.22,0,0,1-.54-2.13,4.15,4.15,0,0,1,.54-2.14,4,4,0,0,1,1.44-1.46,4.35,4.35,0,0,1,4.16,0,3.91,3.91,0,0,1,1.45,1.46,4.24,4.24,0,0,1,.53,2.14A4.31,4.31,0,0,1,142,277a3.84,3.84,0,0,1-1.45,1.46A4.1,4.1,0,0,1,138.45,279Zm0-.7a3.39,3.39,0,0,0,1.68-.43,3,3,0,0,0,1.16-1.21,4,4,0,0,0,0-3.58,3,3,0,0,0-1.16-1.2,3.39,3.39,0,0,0-1.68-.43,3.32,3.32,0,0,0-1.67.43,3.14,3.14,0,0,0-1.17,1.2,3.94,3.94,0,0,0,0,3.58,3.1,3.1,0,0,0,1.17,1.21A3.32,3.32,0,0,0,138.45,278.29Z"/><path class="cls-2" d="M143.58,271.47v-.66h4.85v.66Zm3.7,7.52a2.19,2.19,0,0,1-1.64-.59,2.26,2.26,0,0,1-.57-1.62V269h.78v7.67a1.7,1.7,0,0,0,.39,1.2,1.45,1.45,0,0,0,1.12.42,1.8,1.8,0,0,0,1.26-.45l.33.54a2,2,0,0,1-.76.44A3.09,3.09,0,0,1,147.28,279Z"/><path class="cls-2" d="M154.41,279a4.36,4.36,0,0,1-2.17-.53,3.84,3.84,0,0,1-1.48-1.46,4.22,4.22,0,0,1-.54-2.13,4.34,4.34,0,0,1,.51-2.14,3.92,3.92,0,0,1,5.36-1.47,3.64,3.64,0,0,1,1.39,1.44,4.33,4.33,0,0,1,.5,2.13v.11a.37.37,0,0,0,0,.11H150.8v-.6h6.75l-.31.29a3.31,3.31,0,0,0-.4-1.7,3.09,3.09,0,0,0-5.45,0,3.55,3.55,0,0,0-.4,1.72v.14a3.41,3.41,0,0,0,.44,1.76,3.13,3.13,0,0,0,1.22,1.2,3.68,3.68,0,0,0,1.77.43,3.91,3.91,0,0,0,1.46-.28,2.83,2.83,0,0,0,1.14-.86l.45.52a3.35,3.35,0,0,1-1.33,1A4.31,4.31,0,0,1,154.41,279Z"/><path class="cls-2" d="M160.39,278.92v-8.11h.75V273l-.08-.25a2.92,2.92,0,0,1,1.15-1.51,3.67,3.67,0,0,1,2-.53v.77h-.19a2.7,2.7,0,0,0-2.12.85,3.42,3.42,0,0,0-.76,2.35v4.23Z"/><path class="cls-2" d="M168.72,279a3.93,3.93,0,0,1-1.57-.29,2.23,2.23,0,0,1-1-.82,2.15,2.15,0,0,1-.35-1.21,2.26,2.26,0,0,1,.29-1.13,2.08,2.08,0,0,1,1-.82,4,4,0,0,1,1.78-.32h3v.6h-3a2.58,2.58,0,0,0-1.76.47,1.6,1.6,0,0,0,.08,2.41,2.62,2.62,0,0,0,1.66.47,3.09,3.09,0,0,0,1.74-.47,2.76,2.76,0,0,0,1.05-1.35l.22.53a2.83,2.83,0,0,1-1.12,1.41A3.59,3.59,0,0,1,168.72,279Zm2.92-.07v-1.85l0-.28v-3A2.28,2.28,0,0,0,171,272a2.49,2.49,0,0,0-1.79-.59,4.31,4.31,0,0,0-2.8,1l-.39-.56a4.27,4.27,0,0,1,1.46-.84,5.15,5.15,0,0,1,1.79-.31,3.25,3.25,0,0,1,2.32.77,3,3,0,0,1,.81,2.27v5.14Z"/><path class="cls-2" d="M175.59,281.94V270.81h.75v2.66l-.13,1.41.16,1.42v5.64Zm4.08-2.95a3.81,3.81,0,0,1-1.94-.5,3.6,3.6,0,0,1-1.37-1.42,5,5,0,0,1,0-4.41,3.6,3.6,0,0,1,1.37-1.42,3.81,3.81,0,0,1,1.94-.5,4.17,4.17,0,0,1,2.06.52,3.86,3.86,0,0,1,1.43,1.46,4.68,4.68,0,0,1,0,4.29,3.86,3.86,0,0,1-1.43,1.46A4.17,4.17,0,0,1,179.67,279Zm0-.7a3.39,3.39,0,0,0,1.68-.43,3,3,0,0,0,1.17-1.21,3.94,3.94,0,0,0,0-3.58,3.07,3.07,0,0,0-1.17-1.2,3.39,3.39,0,0,0-1.68-.43,3.32,3.32,0,0,0-1.67.43,3.14,3.14,0,0,0-1.17,1.2,3.94,3.94,0,0,0,0,3.58,3.1,3.1,0,0,0,1.17,1.21A3.32,3.32,0,0,0,179.62,278.29Z"/><path class="cls-2" d="M186.48,268.83a.58.58,0,0,1-.45-.19.57.57,0,0,1-.19-.43.65.65,0,0,1,.64-.64.6.6,0,0,1,.63.62.64.64,0,0,1-.17.45A.6.6,0,0,1,186.48,268.83Zm-.39,10.09v-8.11h.78v8.11Z"/><path class="cls-2" d="M192.34,279a3.91,3.91,0,0,1-1.56-.29,2.18,2.18,0,0,1-1-.82,2.07,2.07,0,0,1-.35-1.21,2.26,2.26,0,0,1,.28-1.13,2.13,2.13,0,0,1,1-.82,4.1,4.1,0,0,1,1.79-.32h3v.6h-3a2.6,2.6,0,0,0-1.76.47,1.52,1.52,0,0,0-.51,1.17,1.49,1.49,0,0,0,.6,1.24,2.6,2.6,0,0,0,1.66.47,3.08,3.08,0,0,0,1.73-.47,2.65,2.65,0,0,0,1-1.35l.22.53a2.87,2.87,0,0,1-1.11,1.41A3.6,3.6,0,0,1,192.34,279Zm2.92-.07v-1.85l0-.28v-3a2.28,2.28,0,0,0-.61-1.73,2.52,2.52,0,0,0-1.8-.59,4,4,0,0,0-1.56.29,4.32,4.32,0,0,0-1.24.73l-.39-.56a4.41,4.41,0,0,1,1.47-.84,5.09,5.09,0,0,1,1.78-.31,3.25,3.25,0,0,1,2.32.77,3,3,0,0,1,.81,2.27v5.14Z"/></g></g></svg>